# xmcd
#
# Track frame offsets: 
#        150
#        18390
#        31973
#        47432
#        59921
#        73462
#        83540
#        99984
#        112363
#        119352
#        135462
#        149748
#        164766
#        171769
#        185213
#        194725
#
# Disc length: 2702 seconds
#
# Revision: 1
# Processed by: cddbd v1.5.1PL2 Copyright (c) Steve Scherf et al.
# Submitted via: ExactAudioCopy v0.95b3
#
DISCID=fd0a8c10
DTITLE=John Jackson - Front Porch Blues
DYEAR=1999
DGENRE=Blues
TTITLE0=Railroad Bill
TTITLE1=C. C. Rider
TTITLE2=Death Don't Have No Mercy
TTITLE3=Chesterfield
TTITLE4=Steel Mill Blues
TTITLE5=Louisiana Blues
TTITLE6=Just Because
TTITLE7=Red River Blues
TTITLE8=Fairfax Station Rag
TTITLE9=West Texas Blues
TTITLE10=When He Calls Me
TTITLE11=Midnight Hour Blues
TTITLE12=Rappahannock Blues
TTITLE13=She's So Sweet
TTITLE14=The Devil He Wore A Hickory Shoe
TTITLE15=Have It Your Own Way
EXTD=
EXTT0=
EXTT1=
EXTT2=
EXTT3=
EXTT4=
EXTT5=
EXTT6=
EXTT7=
EXTT8=
EXTT9=
EXTT10=
EXTT11=
EXTT12=
EXTT13=
EXTT14=
EXTT15=
PLAYORDER=
